export const tracks = [{"name":"special","active":true,"selectedPattern":"ganz schön mogulig","patterns":[],"notes":[{"id":"note0","pitch":48,"start":0,"duration":0.125,"velocity":0.5,"selected":true,"playing":false},{"id":"note1","pitch":48,"start":0.25,"duration":0.125,"velocity":0.5,"selected":false,"playing":false},{"id":"note2","pitch":48,"start":0.5,"duration":0.125,"velocity":0.5,"selected":false,"playing":false},{"id":"note3","pitch":48,"start":0.625,"duration":0.125,"velocity":0.5,"selected":false,"playing":false},{"id":"note4","pitch":48,"start":0.875,"duration":0.125,"velocity":0.5,"selected":false,"playing":false},{"id":"note5","pitch":48,"start":1.125,"duration":0.125,"velocity":0.5,"selected":false,"playing":false},{"id":"note6","pitch":48,"start":1.375,"duration":0.125,"velocity":0.5,"selected":false,"playing":false},{"id":"note7","pitch":48,"start":1.5,"duration":0.125,"velocity":0.5,"selected":false,"playing":false},{"id":"note8","pitch":46,"start":1.75,"duration":0.125,"velocity":0.5,"selected":false,"playing":false},{"id":"note9","pitch":48,"start":1.875,"duration":0.125,"velocity":0.5,"selected":false,"playing":false},{"id":"note10","pitch":55,"start":2,"duration":0.125,"velocity":0.5,"selected":false,"playing":false},{"id":"note11","pitch":51,"start":2.25,"duration":0.125,"velocity":0.5,"selected":false,"playing":false},{"id":"note12","pitch":51,"start":2.5,"duration":0.125,"velocity":0.5,"selected":false,"playing":false},{"id":"note13","pitch":51,"start":2.625,"duration":0.125,"velocity":0.5,"selected":false,"playing":false},{"id":"note14","pitch":51,"start":2.875,"duration":0.125,"velocity":0.5,"selected":false,"playing":false},{"id":"note15","pitch":51,"start":3.125,"duration":0.125,"velocity":0.5,"selected":false,"playing":false},{"id":"note16","pitch":51,"start":3.375,"duration":0.125,"velocity":0.5,"selected":false,"playing":false},{"id":"note17","pitch":51,"start":3.5,"duration":0.125,"velocity":0.5,"selected":false,"playing":false},{"id":"note18","pitch":47,"start":3.625,"duration":0.125,"velocity":0.5,"selected":false,"playing":false},{"id":"note19","pitch":47,"start":3.75,"duration":0.125,"velocity":0.5,"selected":false,"playing":false},{"id":"note20","pitch":48,"start":4,"duration":0.125,"velocity":0.5,"selected":false,"playing":false},{"id":"note21","pitch":75,"start":4,"duration":0.25,"velocity":0.5,"selected":false,"playing":false},{"id":"note22","pitch":72,"start":4.25,"duration":0.5,"velocity":0.5,"selected":false,"playing":false},{"id":"note23","pitch":48,"start":4.25,"duration":0.125,"velocity":0.5,"selected":false,"playing":false},{"id":"note24","pitch":48,"start":4.5,"duration":0.125,"velocity":0.5,"selected":false,"playing":false},{"id":"note25","pitch":48,"start":4.625,"duration":0.125,"velocity":0.5,"selected":false,"playing":false},{"id":"note26","pitch":72,"start":4.875,"duration":0.125,"velocity":0.5,"selected":false,"playing":false},{"id":"note27","pitch":48,"start":4.875,"duration":0.125,"velocity":0.5,"selected":false,"playing":false},{"id":"note28","pitch":48,"start":5.125,"duration":0.125,"velocity":0.5,"selected":false,"playing":false},{"id":"note29","pitch":72,"start":5.125,"duration":0.125,"velocity":0.5,"selected":false,"playing":false},{"id":"note30","pitch":72,"start":5.25,"duration":0.125,"velocity":0.5,"selected":false,"playing":false},{"id":"note31","pitch":48,"start":5.375,"duration":0.125,"velocity":0.5,"selected":false,"playing":false},{"id":"note32","pitch":70,"start":5.5,"duration":0.125,"velocity":0.5,"selected":false,"playing":false},{"id":"note33","pitch":48,"start":5.5,"duration":0.125,"velocity":0.5,"selected":false,"playing":false},{"id":"note34","pitch":75,"start":5.625,"duration":0.125,"velocity":0.5,"selected":false,"playing":false},{"id":"note35","pitch":79,"start":5.75,"duration":0.125,"velocity":0.5,"selected":false,"playing":false},{"id":"note36","pitch":46,"start":5.75,"duration":0.125,"velocity":0.5,"selected":false,"playing":false},{"id":"note37","pitch":48,"start":5.875,"duration":0.125,"velocity":0.5,"selected":false,"playing":false},{"id":"note38","pitch":77,"start":5.875,"duration":0.125,"velocity":0.5,"selected":false,"playing":false},{"id":"note39","pitch":74,"start":6,"duration":0.375,"velocity":0.5,"selected":false,"playing":false},{"id":"note40","pitch":55,"start":6,"duration":0.125,"velocity":0.5,"selected":false,"playing":false},{"id":"note41","pitch":51,"start":6.25,"duration":0.125,"velocity":0.5,"selected":false,"playing":false},{"id":"note42","pitch":75,"start":6.375,"duration":0.25,"velocity":0.5,"selected":false,"playing":false},{"id":"note43","pitch":51,"start":6.5,"duration":0.125,"velocity":0.5,"selected":false,"playing":false},{"id":"note44","pitch":70,"start":6.625,"duration":0.375,"velocity":0.5,"selected":false,"playing":false},{"id":"note45","pitch":51,"start":6.625,"duration":0.125,"velocity":0.5,"selected":false,"playing":false},{"id":"note46","pitch":51,"start":6.875,"duration":0.125,"velocity":0.5,"selected":false,"playing":false},{"id":"note47","pitch":67,"start":7,"duration":0.125,"velocity":0.5,"selected":false,"playing":false},{"id":"note48","pitch":72,"start":7.125,"duration":0.125,"velocity":0.5,"selected":false,"playing":false},{"id":"note49","pitch":51,"start":7.125,"duration":0.125,"velocity":0.5,"selected":false,"playing":false},{"id":"note50","pitch":75,"start":7.25,"duration":0.125,"velocity":0.5,"selected":false,"playing":false},{"id":"note51","pitch":74,"start":7.375,"duration":0.25,"velocity":0.5,"selected":false,"playing":false},{"id":"note52","pitch":51,"start":7.375,"duration":0.125,"velocity":0.5,"selected":false,"playing":false},{"id":"note53","pitch":51,"start":7.5,"duration":0.125,"velocity":0.5,"selected":false,"playing":false},{"id":"note54","pitch":75,"start":7.625,"duration":0.125,"velocity":0.5,"selected":false,"playing":false},{"id":"note55","pitch":47,"start":7.625,"duration":0.125,"velocity":0.5,"selected":false,"playing":false},{"id":"note56","pitch":71,"start":7.75,"duration":0.25,"velocity":0.5,"selected":false,"playing":false},{"id":"note57","pitch":47,"start":7.75,"duration":0.125,"velocity":0.5,"selected":false,"playing":false},{"id":"note58","pitch":48,"start":8,"duration":0.125,"velocity":0.5,"selected":false,"playing":false},{"id":"note59","pitch":75,"start":8,"duration":0.25,"velocity":0.5,"selected":false,"playing":false},{"id":"note60","pitch":72,"start":8.25,"duration":0.5,"velocity":0.5,"selected":false,"playing":false},{"id":"note61","pitch":48,"start":8.25,"duration":0.125,"velocity":0.5,"selected":false,"playing":false},{"id":"note62","pitch":48,"start":8.5,"duration":0.125,"velocity":0.5,"selected":false,"playing":false},{"id":"note63","pitch":48,"start":8.625,"duration":0.125,"velocity":0.5,"selected":false,"playing":false},{"id":"note64","pitch":72,"start":8.875,"duration":0.125,"velocity":0.5,"selected":false,"playing":false},{"id":"note65","pitch":48,"start":8.875,"duration":0.125,"velocity":0.5,"selected":false,"playing":false},{"id":"note66","pitch":72,"start":9.125,"duration":0.125,"velocity":0.5,"selected":false,"playing":false},{"id":"note67","pitch":48,"start":9.125,"duration":0.125,"velocity":0.5,"selected":false,"playing":false},{"id":"note68","pitch":72,"start":9.25,"duration":0.125,"velocity":0.5,"selected":false,"playing":false},{"id":"note69","pitch":75,"start":9.375,"duration":0.125,"velocity":0.5,"selected":false,"playing":false},{"id":"note70","pitch":48,"start":9.375,"duration":0.125,"velocity":0.5,"selected":false,"playing":false},{"id":"note71","pitch":79,"start":9.5,"duration":0.125,"velocity":0.5,"selected":false,"playing":false},{"id":"note72","pitch":48,"start":9.5,"duration":0.125,"velocity":0.5,"selected":false,"playing":false},{"id":"note73","pitch":84,"start":9.625,"duration":0.125,"velocity":0.5,"selected":false,"playing":false},{"id":"note74","pitch":79,"start":9.75,"duration":0.125,"velocity":0.5,"selected":false,"playing":false},{"id":"note75","pitch":46,"start":9.75,"duration":0.125,"velocity":0.5,"selected":false,"playing":false},{"id":"note76","pitch":75,"start":9.875,"duration":0.125,"velocity":0.5,"selected":false,"playing":false},{"id":"note77","pitch":48,"start":9.875,"duration":0.125,"velocity":0.5,"selected":false,"playing":false},{"id":"note78","pitch":87,"start":10,"duration":0.125,"velocity":0.5,"selected":false,"playing":false},{"id":"note79","pitch":55,"start":10,"duration":0.125,"velocity":0.5,"selected":false,"playing":false},{"id":"note80","pitch":84,"start":10.125,"duration":0.125,"velocity":0.5,"selected":false,"playing":false},{"id":"note81","pitch":48,"start":10.125,"duration":0.125,"velocity":0.5,"selected":false,"playing":false},{"id":"note82","pitch":79,"start":10.25,"duration":0.125,"velocity":0.5,"selected":false,"playing":false},{"id":"note83","pitch":51,"start":10.25,"duration":0.125,"velocity":0.5,"selected":false,"playing":false},{"id":"note84","pitch":86,"start":10.375,"duration":0.125,"velocity":0.5,"selected":false,"playing":false},{"id":"note85","pitch":55,"start":10.5,"duration":0.125,"velocity":0.5,"selected":false,"playing":false},{"id":"note86","pitch":83,"start":10.5,"duration":0.125,"velocity":0.5,"selected":false,"playing":false},{"id":"note87","pitch":79,"start":10.625,"duration":0.125,"velocity":0.5,"selected":false,"playing":false},{"id":"note88","pitch":50,"start":10.625,"duration":0.125,"velocity":0.5,"selected":false,"playing":false},{"id":"note89","pitch":59,"start":10.75,"duration":0.125,"velocity":0.5,"selected":false,"playing":false},{"id":"note90","pitch":83,"start":10.875,"duration":0.125,"velocity":0.5,"selected":false,"playing":false},{"id":"note91","pitch":50,"start":10.875,"duration":0.125,"velocity":0.5,"selected":false,"playing":false},{"id":"note92","pitch":84,"start":11,"duration":0.125,"velocity":0.5,"selected":false,"playing":false},{"id":"note93","pitch":53,"start":11,"duration":0.125,"velocity":0.5,"selected":false,"playing":false},{"id":"note94","pitch":80,"start":11.125,"duration":0.125,"velocity":0.5,"selected":false,"playing":false},{"id":"note95","pitch":48,"start":11.125,"duration":0.125,"velocity":0.5,"selected":false,"playing":false},{"id":"note96","pitch":77,"start":11.25,"duration":0.125,"velocity":0.5,"selected":false,"playing":false},{"id":"note97","pitch":56,"start":11.25,"duration":0.125,"velocity":0.5,"selected":false,"playing":false},{"id":"note98","pitch":84,"start":11.375,"duration":0.125,"velocity":0.5,"selected":false,"playing":false},{"id":"note99","pitch":86,"start":11.5,"duration":0.125,"velocity":0.5,"selected":false,"playing":false},{"id":"note100","pitch":55,"start":11.5,"duration":0.125,"velocity":0.5,"selected":false,"playing":false},{"id":"note101","pitch":83,"start":11.625,"duration":0.125,"velocity":0.5,"selected":false,"playing":false},{"id":"note102","pitch":50,"start":11.625,"duration":0.125,"velocity":0.5,"selected":false,"playing":false},{"id":"note103","pitch":79,"start":11.75,"duration":0.125,"velocity":0.5,"selected":false,"playing":false},{"id":"note104","pitch":59,"start":11.75,"duration":0.125,"velocity":0.5,"selected":false,"playing":false},{"id":"note105","pitch":74,"start":11.875,"duration":0.125,"velocity":0.5,"selected":false,"playing":false},{"id":"note106","pitch":50,"start":11.875,"duration":0.125,"velocity":0.5,"selected":false,"playing":false},{"id":"note107","pitch":72,"start":12,"duration":0.125,"velocity":0.5,"selected":false,"playing":false},{"id":"note108","pitch":48,"start":12,"duration":0.125,"velocity":0.5,"selected":false,"playing":false},{"id":"note109","pitch":72,"start":12.25,"duration":0.25,"velocity":0.5,"selected":false,"playing":false},{"id":"note110","pitch":48,"start":12.25,"duration":0.125,"velocity":0.5,"selected":false,"playing":false},{"id":"note111","pitch":72,"start":12.5,"duration":0.125,"velocity":0.5,"selected":false,"playing":false},{"id":"note112","pitch":48,"start":12.5,"duration":0.125,"velocity":0.5,"selected":false,"playing":false},{"id":"note113","pitch":75,"start":12.625,"duration":0.25,"velocity":0.5,"selected":false,"playing":false},{"id":"note114","pitch":48,"start":12.625,"duration":0.125,"velocity":0.5,"selected":false,"playing":false},{"id":"note115","pitch":48,"start":12.875,"duration":0.125,"velocity":0.5,"selected":false,"playing":false},{"id":"note116","pitch":72,"start":12.875,"duration":0.125,"velocity":0.5,"selected":false,"playing":false},{"id":"note117","pitch":72,"start":13.125,"duration":0.125,"velocity":0.5,"selected":false,"playing":false},{"id":"note118","pitch":48,"start":13.125,"duration":0.125,"velocity":0.5,"selected":false,"playing":false},{"id":"note119","pitch":77,"start":13.375,"duration":0.125,"velocity":0.5,"selected":false,"playing":false},{"id":"note120","pitch":48,"start":13.375,"duration":0.125,"velocity":0.5,"selected":false,"playing":false},{"id":"note121","pitch":48,"start":13.5,"duration":0.125,"velocity":0.5,"selected":false,"playing":false},{"id":"note122","pitch":73,"start":13.5,"duration":0.125,"velocity":0.5,"selected":false,"playing":false},{"id":"note123","pitch":46,"start":13.625,"duration":0.125,"velocity":0.5,"selected":false,"playing":false},{"id":"note124","pitch":48,"start":13.75,"duration":0.125,"velocity":0.5,"selected":false,"playing":false},{"id":"note125","pitch":70,"start":13.75,"duration":0.125,"velocity":0.5,"selected":false,"playing":false},{"id":"note126","pitch":72,"start":13.875,"duration":0.125,"velocity":0.5,"selected":false,"playing":false},{"id":"note127","pitch":50,"start":13.875,"duration":0.125,"velocity":0.5,"selected":false,"playing":false},{"id":"note128","pitch":75,"start":14,"duration":0.375,"velocity":0.5,"selected":false,"playing":false},{"id":"note129","pitch":51,"start":14,"duration":0.125,"velocity":0.5,"selected":false,"playing":false},{"id":"note130","pitch":46,"start":14.125,"duration":0.125,"velocity":0.5,"selected":false,"playing":false},{"id":"note131","pitch":51,"start":14.25,"duration":0.125,"velocity":0.5,"selected":false,"playing":false},{"id":"note132","pitch":55,"start":14.375,"duration":0.125,"velocity":0.5,"selected":false,"playing":false},{"id":"note133","pitch":53,"start":14.5,"duration":0.125,"velocity":0.5,"selected":false,"playing":false},{"id":"note134","pitch":46,"start":14.625,"duration":0.125,"velocity":0.5,"selected":false,"playing":false},{"id":"note135","pitch":82,"start":14.75,"duration":0.438,"velocity":0.5,"selected":false,"playing":false},{"id":"note136","pitch":58,"start":14.75,"duration":0.125,"velocity":0.5,"selected":false,"playing":false},{"id":"note137","pitch":50,"start":14.875,"duration":0.125,"velocity":0.5,"selected":false,"playing":false},{"id":"note138","pitch":55,"start":15,"duration":0.125,"velocity":0.5,"selected":false,"playing":false},{"id":"note139","pitch":51,"start":15.125,"duration":0.125,"velocity":0.5,"selected":false,"playing":false},{"id":"note140","pitch":60,"start":15.25,"duration":0.125,"velocity":0.5,"selected":false,"playing":false},{"id":"note141","pitch":63,"start":15.375,"duration":0.125,"velocity":0.5,"selected":false,"playing":false},{"id":"note142","pitch":84,"start":15.5,"duration":0.125,"velocity":0.5,"selected":false,"playing":false},{"id":"note143","pitch":58,"start":15.5,"duration":0.125,"velocity":0.5,"selected":false,"playing":false},{"id":"note144","pitch":82,"start":15.625,"duration":0.125,"velocity":0.5,"selected":false,"playing":false},{"id":"note145","pitch":53,"start":15.625,"duration":0.125,"velocity":0.5,"selected":false,"playing":false},{"id":"note146","pitch":77,"start":15.75,"duration":0.125,"velocity":0.5,"selected":false,"playing":false},{"id":"note147","pitch":50,"start":15.75,"duration":0.125,"velocity":0.5,"selected":false,"playing":false},{"id":"note148","pitch":45,"start":15.875,"duration":0.125,"velocity":0.5,"selected":false,"playing":false}],"hue":64,"channel":1,"transposeOctaves":0}]